# xmcd
#
# Track frame offsets:
#	150
#	22754
#	38032
#	55898
#	83308
#	106498
#	125250
#	137893
#	167714
#	183359
#	202191
#	217464
#	232310
#	247918
#
# Disc length: 3523 seconds
#
# Revision: 1
# Processed by: cddbd v1.5.2PL0 Copyright (c) Steve Scherf et al.
# Submitted via: audiograbber 1.83.01
#
DISCID=c30dc10e
DTITLE=Asleep At The Wheel - Kings Of The 'Texas' Swing
DYEAR=2007
DGENRE=Country
TTITLE0=Choo Choo Ch' Boogie
TTITLE1=Ain't Misbehavin' (I'm Savin' My Love For You)
TTITLE2=The Letter That Johnny Walker Read
TTITLE3=Sittin' On Top Of The World
TTITLE4=What A Wonderful World
TTITLE5=Big Ball's In Cow Town
TTITLE6=You're From Texas
TTITLE7=Hot Rod Lincoln
TTITLE8=House Of Blue Lights
TTITLE9=Cotton Eyed Joe
TTITLE10=Miles And Miles Of Texas
TTITLE11=(Get Your Kicks On) Route 66
TTITLE12=Take Me Back To Tulsa
TTITLE13=Texas, Me And You
EXTD=Goldenlane Records CLP 1683 comes with DVD c. 2007
EXTT0=
EXTT1=
EXTT2=
EXTT3=
EXTT4=
EXTT5=
EXTT6=
EXTT7=
EXTT8=
EXTT9=
EXTT10=
EXTT11=
EXTT12=
EXTT13=
PLAYORDER=
